# xmcd CD database file
# Copyright (C) 1993-1998 Ti Kan
#
# Track frame offsets:
#	150
#	19092
#	35682
#	57945
#	74650
#	92252
#	111385
#	124865
#	145782
#	164795
#
# Disc length: 2474 seconds
#
# Revision: 1
# Processed by: cddbd v1.4b41PL1 Copyright (c) Steve Scherf et al.
# Submitted via: CDValet v3.30 - Copyright (c) 1997 Greg Leichner
#
DISCID=9109a80a
DTITLE=Mighty Joe Young - Mighty Man
DYEAR=1900
DGENRE=
TTITLE0=Starvation
TTITLE1=Mighty Man
TTITLE2=Turning Point
TTITLE3=Got My Mind On My Woman
TTITLE4=Got A Hold On Me
TTITLE5=Bring It On
TTITLE6=End Of The Line
TTITLE7=Ain't Goin' For That
TTITLE8=Wishy Washy Woman
TTITLE9=On The Move Again
EXTD=
EXTT0=
EXTT1=
EXTT2=
EXTT3=
EXTT4=
EXTT5=
EXTT6=
EXTT7=
EXTT8=
EXTT9=
PLAYORDER=
